<svg xmlns="http://www.w3.org/2000/svg" width="400" height="400" viewBox="0 0 400 400">
  <rect width="400" height="400" fill="white"/>
  <!-- Внешняя рамка -->
  <rect x="20" y="20" width="360" height="360" fill="none" stroke="black" stroke-width="12"/>
  <!-- Угловые маркеры -->
  <rect x="30" y="30" width="80" height="80" fill="black"/>
  <rect x="290" y="30" width="80" height="80" fill="black"/>
  <rect x="30" y="290" width="80" height="80" fill="black"/>
  <rect x="45" y="45" width="50" height="50" fill="white"/>
  <rect x="305" y="45" width="50" height="50" fill="white"/>
  <rect x="45" y="305" width="50" height="50" fill="white"/>
  <rect x="57" y="57" width="26" height="26" fill="black"/>
  <rect x="317" y="57" width="26" height="26" fill="black"/>
  <rect x="57" y="317" width="26" height="26" fill="black"/>
  <!-- Центральный паттерн -->
  <rect x="150" y="150" width="100" height="100" fill="black"/>
  <rect x="165" y="165" width="70" height="70" fill="white"/>
  <rect x="180" y="180" width="40" height="40" fill="black"/>
  <!-- Паттерн данных -->
  <rect x="120" y="30" width="20" height="20" fill="black"/>
  <rect x="160" y="30" width="20" height="20" fill="black"/>
  <rect x="200" y="30" width="20" height="20" fill="black"/>
  <rect x="260" y="30" width="20" height="20" fill="black"/>
  <rect x="30" y="120" width="20" height="20" fill="black"/>
  <rect x="30" y="160" width="20" height="20" fill="black"/>
  <rect x="30" y="220" width="20" height="20" fill="black"/>
  <rect x="350" y="120" width="20" height="20" fill="black"/>
  <rect x="350" y="180" width="20" height="20" fill="black"/>
  <rect x="350" y="240" width="20" height="20" fill="black"/>
  <rect x="120" y="350" width="20" height="20" fill="black"/>
  <rect x="180" y="350" width="20" height="20" fill="black"/>
  <rect x="240" y="350" width="20" height="20" fill="black"/>
  <rect x="310" y="290" width="80" height="80" fill="none" stroke="black" stroke-width="8"/>
  <rect x="320" y="300" width="20" height="20" fill="black"/>
  <rect x="350" y="300" width="20" height="20" fill="black"/>
  <rect x="320" y="330" width="20" height="20" fill="black"/>
  <!-- Текст -->
  <text x="200" y="390" font-family="Arial" font-size="14" text-anchor="middle" fill="#333">Mobile XR Marker</text>
</svg>